<?xml version="1.0" standalone="no"?>
<!DOCTYPE svg PUBLIC "-//W3C//DTD SVG 20010904//EN"
 "http://www.w3.org/TR/2001/REC-SVG-20010904/DTD/svg10.dtd">
<svg version="1.0" xmlns="http://www.w3.org/2000/svg"
 width="192.000000pt" height="192.000000pt" viewBox="0 0 192.000000 192.000000"
 preserveAspectRatio="xMidYMid meet">

<g transform="translate(0.000000,192.000000) scale(0.100000,-0.100000)"
fill="#000000" stroke="none">
<path d="M442 1428 c-8 -8 -12 -63 -12 -180 l0 -168 318 0 318 0 52 -53 c29
-29 52 -59 52 -68 0 -8 -24 -38 -53 -67 l-53 -52 -317 0 -317 0 0 -161 c0 -91
4 -169 10 -180 10 -18 25 -19 350 -19 186 0 346 3 354 6 9 3 108 105 221 225
175 187 205 223 205 249 0 26 -22 55 -137 178 -75 81 -170 182 -212 225 l-76
77 -345 0 c-256 0 -349 -3 -358 -12z"/>
</g>
</svg>
